<?xml version="1.0" encoding="UTF-8"?>
<svg id="Layer_1" xmlns="http://www.w3.org/2000/svg" xmlns:xlink="http://www.w3.org/1999/xlink" version="1.1" viewBox="0 0 196 82">
  <!-- Generator: Adobe Illustrator 29.0.0, SVG Export Plug-In . SVG Version: 2.1.0 Build 186)  -->
  <defs>
    <style>
      .st0 {
        fill: url(#linear-gradient2);
      }

      .st1 {
        fill: url(#linear-gradient1);
      }

      .st2 {
        fill: url(#linear-gradient3);
      }

      .st3 {
        fill: #231f20;
      }

      .st4 {
        fill: url(#linear-gradient);
      }

      .st5, .st6 {
        isolation: isolate;
      }

      .st7, .st6 {
        fill: #fff;
      }

      .st6 {
        font-family: ArialMT, Arial;
        font-size: 10.9px;
      }
    </style>
    <linearGradient id="linear-gradient" x1="66.2" y1="1054.2" x2="66.2" y2="1001" gradientTransform="translate(0 -996)" gradientUnits="userSpaceOnUse">
      <stop offset="0" stop-color="#fab802"/>
      <stop offset=".2" stop-color="#fab906"/>
      <stop offset=".3" stop-color="#fabc11"/>
      <stop offset=".5" stop-color="#f9c124"/>
      <stop offset=".6" stop-color="#f9c93f"/>
      <stop offset=".8" stop-color="#f8d261"/>
      <stop offset=".9" stop-color="#f8de8b"/>
      <stop offset="1" stop-color="#f7e9b3"/>
    </linearGradient>
    <linearGradient id="linear-gradient1" x1="117.3" y1="1053.6" x2="117.3" y2="1001" gradientTransform="translate(0 -996)" gradientUnits="userSpaceOnUse">
      <stop offset="0" stop-color="#fab802"/>
      <stop offset=".2" stop-color="#fab906"/>
      <stop offset=".3" stop-color="#fabc11"/>
      <stop offset=".5" stop-color="#f9c124"/>
      <stop offset=".6" stop-color="#f9c93f"/>
      <stop offset=".8" stop-color="#f8d261"/>
      <stop offset=".9" stop-color="#f8de8b"/>
      <stop offset="1" stop-color="#f7e9b3"/>
    </linearGradient>
    <linearGradient id="linear-gradient2" x1="166.3" y1="1054.2" x2="166.3" y2="1001.7" gradientTransform="translate(0 -996)" gradientUnits="userSpaceOnUse">
      <stop offset="0" stop-color="#fab802"/>
      <stop offset=".2" stop-color="#fab906"/>
      <stop offset=".3" stop-color="#fabc11"/>
      <stop offset=".5" stop-color="#f9c124"/>
      <stop offset=".6" stop-color="#f9c93f"/>
      <stop offset=".8" stop-color="#f8d261"/>
      <stop offset=".9" stop-color="#f8de8b"/>
      <stop offset="1" stop-color="#f7e9b3"/>
    </linearGradient>
    <linearGradient id="linear-gradient3" x1="21" y1="26.4" x2="21" y2="79.5" gradientTransform="translate(0 84) scale(1 -1)" gradientUnits="userSpaceOnUse">
      <stop offset="0" stop-color="#fab801"/>
      <stop offset=".2" stop-color="#f9b904"/>
      <stop offset=".3" stop-color="#f9bc10"/>
      <stop offset=".5" stop-color="#f9c123"/>
      <stop offset=".6" stop-color="#f8c93f"/>
      <stop offset=".8" stop-color="#f8d262"/>
      <stop offset=".9" stop-color="#f7de8c"/>
      <stop offset="1" stop-color="#f7e7ab"/>
    </linearGradient>
  </defs>
  <g id="Layer_11" data-name="Layer_1">
    <path class="st4" d="M89.1,14.9l-3.7,3.7c-2.5-2.6-5.5-4.8-8.8-6.3-2.9-1.4-6.1-2.1-9.3-2.1s-7.5,1-10.7,2.9c-3.3,1.9-6,4.6-7.9,7.9-1.8,3.2-2.8,6.9-2.8,10.6s1,7.5,2.9,10.8c1.9,3.4,4.6,6.2,8,8.1,3.4,2,7.3,3,11.2,2.9,4.6.1,9-1.4,12.5-4.4,3.4-2.9,5.5-7,6-11.4h-15.3v-4.9h20.6c0,7.8-2.2,14-6.6,18.6-4.3,4.6-10.2,6.9-17.5,6.9s-15.9-3.2-21-9.5c-3.9-4.8-6.1-10.8-6-17,0-4.7,1.1-9.3,3.4-13.4,2.2-4,5.4-7.4,9.4-9.7,4.1-2.4,8.7-3.6,13.5-3.5,3.9,0,7.8.8,11.5,2.3,3.9,1.8,7.5,4.3,10.5,7.4h.1Z"/>
    <path class="st1" d="M98.2,57.6V4.9h1.1l32.2,40.4V4.9h4.8v52.7h-1.1l-32-39.9v39.9h-5Z"/>
    <path class="st0" d="M190.4,16.2l-3.9,3c-2-2.7-4.7-4.9-7.7-6.4-3.1-1.5-6.5-2.2-9.9-2.1-3.8,0-7.6,1-10.9,2.9-3.2,1.8-5.9,4.5-7.8,7.7-1.9,3.3-2.8,7.1-2.8,10.9-.2,5.7,2.1,11.2,6.2,15.3,4.1,4.1,9.7,6.3,15.5,6.1,6.7,0,13.1-3,17.3-8.2l3.9,3c-2.4,3.2-5.6,5.7-9.2,7.4-3.8,1.8-8,2.7-12.3,2.6-8.6,0-15.4-2.9-20.3-8.7-4.2-5-6.4-11.4-6.2-17.9-.2-6.9,2.6-13.6,7.6-18.5,5-5,11.4-7.5,18.9-7.5s8.6.9,12.4,2.8c3.6,1.8,6.8,4.5,9.1,7.8v-.2Z"/>
    <path class="st7" d="M2,63.6h187c.6,0,1.1.5,1.1,1.1h0c0,.6-.5,1.1-1.1,1.1H2c-.6,0-1.1-.5-1.1-1.1h0c0-.6.5-1.1,1.1-1.1Z"/>
    <g class="st5">
      <text class="st6" transform="translate(0 77.6)"><tspan x="0" y="0" xml:space="preserve">  Plant Gene Nomenclature Committee</tspan></text>
    </g>
    <g>
      <path d="M4.5,4.5h15.4c5.4,0,9.7,1.2,12.8,3.5,3.1,2.4,4.7,5.9,4.7,10.7s-1.6,8.3-4.7,10.7-7.4,3.6-12.8,3.6h-10v24.6h-5.4V4.5ZM9.9,28h8.7c2.4,0,4.4-.2,6.1-.8,1.7-.5,3-1.2,4-2s1.7-1.8,2.2-2.9c.4-1.1.7-2.3.7-3.6s-.2-2.4-.7-3.6c-.5-1.1-1.2-2.1-2.2-3-1-.8-2.3-1.5-4-2s-3.7-.7-6.1-.7h-8.7v18.5h0Z"/>
      <path class="st3" d="M4.5,4.5h15.4c5.4,0,9.7,1.2,12.8,3.5,3.1,2.4,4.7,5.9,4.7,10.7s-1.6,8.3-4.7,10.7-7.4,3.6-12.8,3.6h-10v24.6h-5.4V4.5ZM9.9,28h8.7c2.4,0,4.4-.2,6.1-.8,1.7-.5,3-1.2,4-2s1.7-1.8,2.2-2.9c.4-1.1.7-2.3.7-3.6s-.2-2.4-.7-3.6c-.5-1.1-1.2-2.1-2.2-3-1-.8-2.3-1.5-4-2s-3.7-.7-6.1-.7h-8.7v18.5h0Z"/>
      <path class="st3" d="M4.5,4.5h15.4c5.4,0,9.7,1.2,12.8,3.5,3.1,2.4,4.7,5.9,4.7,10.7s-1.6,8.3-4.7,10.7-7.4,3.6-12.8,3.6h-10v24.6h-5.4V4.5ZM9.9,28h8.7c2.4,0,4.4-.2,6.1-.8,1.7-.5,3-1.2,4-2s1.7-1.8,2.2-2.9c.4-1.1.7-2.3.7-3.6s-.2-2.4-.7-3.6c-.5-1.1-1.2-2.1-2.2-3-1-.8-2.3-1.5-4-2s-3.7-.7-6.1-.7h-8.7v18.5h0Z"/>
      <path class="st2" d="M4.5,4.5h15.4c5.4,0,9.7,1.2,12.8,3.5,3.1,2.4,4.7,5.9,4.7,10.7s-1.6,8.3-4.7,10.7-7.4,3.6-12.8,3.6h-10v24.6h-5.4V4.5ZM9.9,28h8.7c2.4,0,4.4-.2,6.1-.8,1.7-.5,3-1.2,4-2s1.7-1.8,2.2-2.9c.4-1.1.7-2.3.7-3.6s-.2-2.4-.7-3.6c-.5-1.1-1.2-2.1-2.2-3-1-.8-2.3-1.5-4-2s-3.7-.7-6.1-.7h-8.7v18.5h0Z"/>
    </g>
  </g>
</svg>